<svg width="1188" height="786" viewBox="0 0 1188 786" fill="none" xmlns="http://www.w3.org/2000/svg">
<g clip-path="url(#clip0_23_168760)">
<mask id="mask0_23_168760" style="mask-type:alpha" maskUnits="userSpaceOnUse" x="-144" y="-117" width="1468" height="981">
<g clip-path="url(#clip1_23_168760)">
<rect width="1193" height="1866" transform="matrix(0 -1 1 0 -341 845)" fill="url(#paint0_radial_23_168760)"/>
</g>
</mask>
<g mask="url(#mask0_23_168760)">
<g opacity="0.4">
<g clip-path="url(#clip2_23_168760)">
<g clip-path="url(#clip3_23_168760)">
<circle cx="33" cy="39" r="5" fill="#8F90AB"/>
<circle cx="77" cy="39" r="5" fill="#8F90AB"/>
<circle cx="121" cy="39" r="5" fill="#8F90AB"/>
<circle cx="165" cy="39" r="5" fill="#8F90AB"/>
<circle cx="209" cy="39" r="5" fill="#8F90AB"/>
<circle cx="253" cy="39" r="5" fill="#8F90AB"/>
<circle cx="297" cy="39" r="5" fill="#8F90AB"/>
<circle cx="341" cy="39" r="5" fill="#8F90AB"/>
<circle cx="385" cy="39" r="5" fill="#8F90AB"/>
<circle cx="429" cy="39" r="5" fill="#8F90AB"/>
<circle cx="473" cy="39" r="5" fill="#8F90AB"/>
<circle cx="517" cy="39" r="5" fill="#8F90AB"/>
<circle cx="561" cy="39" r="5" fill="#8F90AB"/>
<circle cx="605" cy="39" r="5" fill="#8F90AB"/>
<circle cx="649" cy="39" r="5" fill="#8F90AB"/>
<circle cx="693" cy="39" r="5" fill="#8F90AB"/>
<circle cx="737" cy="39" r="5" fill="#8F90AB"/>
<circle cx="781" cy="39" r="5" fill="#8F90AB"/>
<circle cx="825" cy="39" r="5" fill="#8F90AB"/>
<circle cx="869" cy="39" r="5" fill="#8F90AB"/>
<circle cx="913" cy="39" r="5" fill="#8F90AB"/>
<circle cx="957" cy="39" r="5" fill="#8F90AB"/>
<circle cx="1001" cy="39" r="5" fill="#8F90AB"/>
<circle cx="1045" cy="39" r="5" fill="#8F90AB"/>
<circle cx="1089" cy="39" r="5" fill="#8F90AB"/>
<circle cx="1133" cy="39" r="5" fill="#8F90AB"/>
<circle cx="1177" cy="39" r="5" fill="#8F90AB"/>
</g>
<g clip-path="url(#clip4_23_168760)">
<circle cx="33" cy="83" r="5" fill="#8F90AB"/>
<circle cx="77" cy="83" r="5" fill="#8F90AB"/>
<circle cx="121" cy="83" r="5" fill="#8F90AB"/>
<circle cx="165" cy="83" r="5" fill="#8F90AB"/>
<circle cx="209" cy="83" r="5" fill="#8F90AB"/>
<circle cx="253" cy="83" r="5" fill="#8F90AB"/>
<circle cx="297" cy="83" r="5" fill="#8F90AB"/>
<circle cx="341" cy="83" r="5" fill="#8F90AB"/>
<circle cx="385" cy="83" r="5" fill="#8F90AB"/>
<circle cx="429" cy="83" r="5" fill="#8F90AB"/>
<circle cx="473" cy="83" r="5" fill="#8F90AB"/>
<circle cx="517" cy="83" r="5" fill="#8F90AB"/>
<circle cx="561" cy="83" r="5" fill="#8F90AB"/>
<circle cx="605" cy="83" r="5" fill="#8F90AB"/>
<circle cx="649" cy="83" r="5" fill="#8F90AB"/>
<circle cx="693" cy="83" r="5" fill="#8F90AB"/>
<circle cx="737" cy="83" r="5" fill="#8F90AB"/>
<circle cx="781" cy="83" r="5" fill="#8F90AB"/>
<circle cx="825" cy="83" r="5" fill="#8F90AB"/>
<circle cx="869" cy="83" r="5" fill="#8F90AB"/>
<circle cx="913" cy="83" r="5" fill="#8F90AB"/>
<circle cx="957" cy="83" r="5" fill="#8F90AB"/>
<circle cx="1001" cy="83" r="5" fill="#8F90AB"/>
<circle cx="1045" cy="83" r="5" fill="#8F90AB"/>
<circle cx="1089" cy="83" r="5" fill="#8F90AB"/>
<circle cx="1133" cy="83" r="5" fill="#8F90AB"/>
<circle cx="1177" cy="83" r="5" fill="#8F90AB"/>
</g>
<g clip-path="url(#clip5_23_168760)">
<circle cx="33" cy="127" r="5" fill="#8F90AB"/>
<circle cx="77" cy="127" r="5" fill="#8F90AB"/>
<circle cx="121" cy="127" r="5" fill="#8F90AB"/>
<circle cx="165" cy="127" r="5" fill="#8F90AB"/>
<circle cx="209" cy="127" r="5" fill="#8F90AB"/>
<circle cx="253" cy="127" r="5" fill="#8F90AB"/>
<circle cx="297" cy="127" r="5" fill="#8F90AB"/>
<circle cx="341" cy="127" r="5" fill="#8F90AB"/>
<circle cx="385" cy="127" r="5" fill="#8F90AB"/>
<circle cx="429" cy="127" r="5" fill="#8F90AB"/>
<circle cx="473" cy="127" r="5" fill="#8F90AB"/>
<circle cx="517" cy="127" r="5" fill="#8F90AB"/>
<circle cx="561" cy="127" r="5" fill="#8F90AB"/>
<circle cx="605" cy="127" r="5" fill="#8F90AB"/>
<circle cx="649" cy="127" r="5" fill="#8F90AB"/>
<circle cx="693" cy="127" r="5" fill="#8F90AB"/>
<circle cx="737" cy="127" r="5" fill="#8F90AB"/>
<circle cx="781" cy="127" r="5" fill="#8F90AB"/>
<circle cx="825" cy="127" r="5" fill="#8F90AB"/>
<circle cx="869" cy="127" r="5" fill="#8F90AB"/>
<circle cx="913" cy="127" r="5" fill="#8F90AB"/>
<circle cx="957" cy="127" r="5" fill="#8F90AB"/>
<circle cx="1001" cy="127" r="5" fill="#8F90AB"/>
<circle cx="1045" cy="127" r="5" fill="#8F90AB"/>
<circle cx="1089" cy="127" r="5" fill="#8F90AB"/>
<circle cx="1133" cy="127" r="5" fill="#8F90AB"/>
<circle cx="1177" cy="127" r="5" fill="#8F90AB"/>
</g>
<g clip-path="url(#clip6_23_168760)">
<circle cx="33" cy="171" r="5" fill="#8F90AB"/>
<circle cx="77" cy="171" r="5" fill="#8F90AB"/>
<circle cx="121" cy="171" r="5" fill="#8F90AB"/>
<circle cx="165" cy="171" r="5" fill="#8F90AB"/>
<circle cx="209" cy="171" r="5" fill="#8F90AB"/>
<circle cx="253" cy="171" r="5" fill="#8F90AB"/>
<circle cx="297" cy="171" r="5" fill="#8F90AB"/>
<circle cx="341" cy="171" r="5" fill="#8F90AB"/>
<circle cx="385" cy="171" r="5" fill="#8F90AB"/>
<circle cx="429" cy="171" r="5" fill="#8F90AB"/>
<circle cx="473" cy="171" r="5" fill="#8F90AB"/>
<circle cx="517" cy="171" r="5" fill="#8F90AB"/>
<circle cx="561" cy="171" r="5" fill="#8F90AB"/>
<circle cx="605" cy="171" r="5" fill="#8F90AB"/>
<circle cx="649" cy="171" r="5" fill="#8F90AB"/>
<circle cx="693" cy="171" r="5" fill="#8F90AB"/>
<circle cx="737" cy="171" r="5" fill="#8F90AB"/>
<circle cx="781" cy="171" r="5" fill="#8F90AB"/>
<circle cx="825" cy="171" r="5" fill="#8F90AB"/>
<circle cx="869" cy="171" r="5" fill="#8F90AB"/>
<circle cx="913" cy="171" r="5" fill="#8F90AB"/>
<circle cx="957" cy="171" r="5" fill="#8F90AB"/>
<circle cx="1001" cy="171" r="5" fill="#8F90AB"/>
<circle cx="1045" cy="171" r="5" fill="#8F90AB"/>
<circle cx="1089" cy="171" r="5" fill="#8F90AB"/>
<circle cx="1133" cy="171" r="5" fill="#8F90AB"/>
<circle cx="1177" cy="171" r="5" fill="#8F90AB"/>
</g>
<g clip-path="url(#clip7_23_168760)">
<circle cx="33" cy="215" r="5" fill="#8F90AB"/>
<circle cx="77" cy="215" r="5" fill="#8F90AB"/>
<circle cx="121" cy="215" r="5" fill="#8F90AB"/>
<circle cx="165" cy="215" r="5" fill="#8F90AB"/>
<circle cx="209" cy="215" r="5" fill="#8F90AB"/>
<circle cx="253" cy="215" r="5" fill="#8F90AB"/>
<circle cx="297" cy="215" r="5" fill="#8F90AB"/>
<circle cx="341" cy="215" r="5" fill="#8F90AB"/>
<circle cx="385" cy="215" r="5" fill="#8F90AB"/>
<circle cx="429" cy="215" r="5" fill="#8F90AB"/>
<circle cx="473" cy="215" r="5" fill="#8F90AB"/>
<circle cx="517" cy="215" r="5" fill="#8F90AB"/>
<circle cx="561" cy="215" r="5" fill="#8F90AB"/>
<circle cx="605" cy="215" r="5" fill="#8F90AB"/>
<circle cx="649" cy="215" r="5" fill="#8F90AB"/>
<circle cx="693" cy="215" r="5" fill="#8F90AB"/>
<circle cx="737" cy="215" r="5" fill="#8F90AB"/>
<circle cx="781" cy="215" r="5" fill="#8F90AB"/>
<circle cx="825" cy="215" r="5" fill="#8F90AB"/>
<circle cx="869" cy="215" r="5" fill="#8F90AB"/>
<circle cx="913" cy="215" r="5" fill="#8F90AB"/>
<circle cx="957" cy="215" r="5" fill="#8F90AB"/>
<circle cx="1001" cy="215" r="5" fill="#8F90AB"/>
<circle cx="1045" cy="215" r="5" fill="#8F90AB"/>
<circle cx="1089" cy="215" r="5" fill="#8F90AB"/>
<circle cx="1133" cy="215" r="5" fill="#8F90AB"/>
<circle cx="1177" cy="215" r="5" fill="#8F90AB"/>
</g>
<g clip-path="url(#clip8_23_168760)">
<circle cx="33" cy="259" r="5" fill="#8F90AB"/>
<circle cx="77" cy="259" r="5" fill="#8F90AB"/>
<circle cx="121" cy="259" r="5" fill="#8F90AB"/>
<circle cx="165" cy="259" r="5" fill="#8F90AB"/>
<circle cx="209" cy="259" r="5" fill="#8F90AB"/>
<circle cx="253" cy="259" r="5" fill="#8F90AB"/>
<circle cx="297" cy="259" r="5" fill="#8F90AB"/>
<circle cx="341" cy="259" r="5" fill="#8F90AB"/>
<circle cx="385" cy="259" r="5" fill="#8F90AB"/>
<circle cx="429" cy="259" r="5" fill="#8F90AB"/>
<circle cx="473" cy="259" r="5" fill="#8F90AB"/>
<circle cx="517" cy="259" r="5" fill="#8F90AB"/>
<circle cx="561" cy="259" r="5" fill="#8F90AB"/>
<circle cx="605" cy="259" r="5" fill="#8F90AB"/>
<circle cx="649" cy="259" r="5" fill="#8F90AB"/>
<circle cx="693" cy="259" r="5" fill="#8F90AB"/>
<circle cx="737" cy="259" r="5" fill="#8F90AB"/>
<circle cx="781" cy="259" r="5" fill="#8F90AB"/>
<circle cx="825" cy="259" r="5" fill="#8F90AB"/>
<circle cx="869" cy="259" r="5" fill="#8F90AB"/>
<circle cx="913" cy="259" r="5" fill="#8F90AB"/>
<circle cx="957" cy="259" r="5" fill="#8F90AB"/>
<circle cx="1001" cy="259" r="5" fill="#8F90AB"/>
<circle cx="1045" cy="259" r="5" fill="#8F90AB"/>
<circle cx="1089" cy="259" r="5" fill="#8F90AB"/>
<circle cx="1133" cy="259" r="5" fill="#8F90AB"/>
<circle cx="1177" cy="259" r="5" fill="#8F90AB"/>
</g>
<g clip-path="url(#clip9_23_168760)">
<circle cx="33" cy="303" r="5" fill="#8F90AB"/>
<circle cx="77" cy="303" r="5" fill="#8F90AB"/>
<circle cx="121" cy="303" r="5" fill="#8F90AB"/>
<circle cx="165" cy="303" r="5" fill="#8F90AB"/>
<circle cx="209" cy="303" r="5" fill="#8F90AB"/>
<circle cx="253" cy="303" r="5" fill="#8F90AB"/>
<circle cx="297" cy="303" r="5" fill="#8F90AB"/>
<circle cx="341" cy="303" r="5" fill="#8F90AB"/>
<circle cx="385" cy="303" r="5" fill="#8F90AB"/>
<circle cx="429" cy="303" r="5" fill="#8F90AB"/>
<circle cx="473" cy="303" r="5" fill="#8F90AB"/>
<circle cx="517" cy="303" r="5" fill="#8F90AB"/>
<circle cx="561" cy="303" r="5" fill="#8F90AB"/>
<circle cx="605" cy="303" r="5" fill="#8F90AB"/>
<circle cx="649" cy="303" r="5" fill="#8F90AB"/>
<circle cx="693" cy="303" r="5" fill="#8F90AB"/>
<circle cx="737" cy="303" r="5" fill="#8F90AB"/>
<circle cx="781" cy="303" r="5" fill="#8F90AB"/>
<circle cx="825" cy="303" r="5" fill="#8F90AB"/>
<circle cx="869" cy="303" r="5" fill="#8F90AB"/>
<circle cx="913" cy="303" r="5" fill="#8F90AB"/>
<circle cx="957" cy="303" r="5" fill="#8F90AB"/>
<circle cx="1001" cy="303" r="5" fill="#8F90AB"/>
<circle cx="1045" cy="303" r="5" fill="#8F90AB"/>
<circle cx="1089" cy="303" r="5" fill="#8F90AB"/>
<circle cx="1133" cy="303" r="5" fill="#8F90AB"/>
<circle cx="1177" cy="303" r="5" fill="#8F90AB"/>
</g>
<g clip-path="url(#clip10_23_168760)">
<circle cx="33" cy="347" r="5" fill="#8F90AB"/>
<circle cx="77" cy="347" r="5" fill="#8F90AB"/>
<circle cx="121" cy="347" r="5" fill="#8F90AB"/>
<circle cx="165" cy="347" r="5" fill="#8F90AB"/>
<circle cx="209" cy="347" r="5" fill="#8F90AB"/>
<circle cx="253" cy="347" r="5" fill="#8F90AB"/>
<circle cx="297" cy="347" r="5" fill="#8F90AB"/>
<circle cx="341" cy="347" r="5" fill="#8F90AB"/>
<circle cx="385" cy="347" r="5" fill="#8F90AB"/>
<circle cx="429" cy="347" r="5" fill="#8F90AB"/>
<circle cx="473" cy="347" r="5" fill="#8F90AB"/>
<circle cx="517" cy="347" r="5" fill="#8F90AB"/>
<circle cx="561" cy="347" r="5" fill="#8F90AB"/>
<circle cx="605" cy="347" r="5" fill="#8F90AB"/>
<circle cx="649" cy="347" r="5" fill="#8F90AB"/>
<circle cx="693" cy="347" r="5" fill="#8F90AB"/>
<circle cx="737" cy="347" r="5" fill="#8F90AB"/>
<circle cx="781" cy="347" r="5" fill="#8F90AB"/>
<circle cx="825" cy="347" r="5" fill="#8F90AB"/>
<circle cx="869" cy="347" r="5" fill="#8F90AB"/>
<circle cx="913" cy="347" r="5" fill="#8F90AB"/>
<circle cx="957" cy="347" r="5" fill="#8F90AB"/>
<circle cx="1001" cy="347" r="5" fill="#8F90AB"/>
<circle cx="1045" cy="347" r="5" fill="#8F90AB"/>
<circle cx="1089" cy="347" r="5" fill="#8F90AB"/>
<circle cx="1133" cy="347" r="5" fill="#8F90AB"/>
<circle cx="1177" cy="347" r="5" fill="#8F90AB"/>
</g>
<g clip-path="url(#clip11_23_168760)">
<circle cx="33" cy="391" r="5" fill="#8F90AB"/>
<circle cx="77" cy="391" r="5" fill="#8F90AB"/>
<circle cx="121" cy="391" r="5" fill="#8F90AB"/>
<circle cx="165" cy="391" r="5" fill="#8F90AB"/>
<circle cx="209" cy="391" r="5" fill="#8F90AB"/>
<circle cx="253" cy="391" r="5" fill="#8F90AB"/>
<circle cx="297" cy="391" r="5" fill="#8F90AB"/>
<circle cx="341" cy="391" r="5" fill="#8F90AB"/>
<circle cx="385" cy="391" r="5" fill="#8F90AB"/>
<circle cx="429" cy="391" r="5" fill="#8F90AB"/>
<circle cx="473" cy="391" r="5" fill="#8F90AB"/>
<circle cx="517" cy="391" r="5" fill="#8F90AB"/>
<circle cx="561" cy="391" r="5" fill="#8F90AB"/>
<circle cx="605" cy="391" r="5" fill="#8F90AB"/>
<circle cx="649" cy="391" r="5" fill="#8F90AB"/>
<circle cx="693" cy="391" r="5" fill="#8F90AB"/>
<circle cx="737" cy="391" r="5" fill="#8F90AB"/>
<circle cx="781" cy="391" r="5" fill="#8F90AB"/>
<circle cx="825" cy="391" r="5" fill="#8F90AB"/>
<circle cx="869" cy="391" r="5" fill="#8F90AB"/>
<circle cx="913" cy="391" r="5" fill="#8F90AB"/>
<circle cx="957" cy="391" r="5" fill="#8F90AB"/>
<circle cx="1001" cy="391" r="5" fill="#8F90AB"/>
<circle cx="1045" cy="391" r="5" fill="#8F90AB"/>
<circle cx="1089" cy="391" r="5" fill="#8F90AB"/>
<circle cx="1133" cy="391" r="5" fill="#8F90AB"/>
<circle cx="1177" cy="391" r="5" fill="#8F90AB"/>
</g>
<g clip-path="url(#clip12_23_168760)">
<circle cx="33" cy="435" r="5" fill="#8F90AB"/>
<circle cx="77" cy="435" r="5" fill="#8F90AB"/>
<circle cx="121" cy="435" r="5" fill="#8F90AB"/>
<circle cx="165" cy="435" r="5" fill="#8F90AB"/>
<circle cx="209" cy="435" r="5" fill="#8F90AB"/>
<circle cx="253" cy="435" r="5" fill="#8F90AB"/>
<circle cx="297" cy="435" r="5" fill="#8F90AB"/>
<circle cx="341" cy="435" r="5" fill="#8F90AB"/>
<circle cx="385" cy="435" r="5" fill="#8F90AB"/>
<circle cx="429" cy="435" r="5" fill="#8F90AB"/>
<circle cx="473" cy="435" r="5" fill="#8F90AB"/>
<circle cx="517" cy="435" r="5" fill="#8F90AB"/>
<circle cx="561" cy="435" r="5" fill="#8F90AB"/>
<circle cx="605" cy="435" r="5" fill="#8F90AB"/>
<circle cx="649" cy="435" r="5" fill="#8F90AB"/>
<circle cx="693" cy="435" r="5" fill="#8F90AB"/>
<circle cx="737" cy="435" r="5" fill="#8F90AB"/>
<circle cx="781" cy="435" r="5" fill="#8F90AB"/>
<circle cx="825" cy="435" r="5" fill="#8F90AB"/>
<circle cx="869" cy="435" r="5" fill="#8F90AB"/>
<circle cx="913" cy="435" r="5" fill="#8F90AB"/>
<circle cx="957" cy="435" r="5" fill="#8F90AB"/>
<circle cx="1001" cy="435" r="5" fill="#8F90AB"/>
<circle cx="1045" cy="435" r="5" fill="#8F90AB"/>
<circle cx="1089" cy="435" r="5" fill="#8F90AB"/>
<circle cx="1133" cy="435" r="5" fill="#8F90AB"/>
<circle cx="1177" cy="435" r="5" fill="#8F90AB"/>
</g>
<g clip-path="url(#clip13_23_168760)">
<circle cx="33" cy="479" r="5" fill="#8F90AB"/>
<circle cx="77" cy="479" r="5" fill="#8F90AB"/>
<circle cx="121" cy="479" r="5" fill="#8F90AB"/>
<circle cx="165" cy="479" r="5" fill="#8F90AB"/>
<circle cx="209" cy="479" r="5" fill="#8F90AB"/>
<circle cx="253" cy="479" r="5" fill="#8F90AB"/>
<circle cx="297" cy="479" r="5" fill="#8F90AB"/>
<circle cx="341" cy="479" r="5" fill="#8F90AB"/>
<circle cx="385" cy="479" r="5" fill="#8F90AB"/>
<circle cx="429" cy="479" r="5" fill="#8F90AB"/>
<circle cx="473" cy="479" r="5" fill="#8F90AB"/>
<circle cx="517" cy="479" r="5" fill="#8F90AB"/>
<circle cx="561" cy="479" r="5" fill="#8F90AB"/>
<circle cx="605" cy="479" r="5" fill="#8F90AB"/>
<circle cx="649" cy="479" r="5" fill="#8F90AB"/>
<circle cx="693" cy="479" r="5" fill="#8F90AB"/>
<circle cx="737" cy="479" r="5" fill="#8F90AB"/>
<circle cx="781" cy="479" r="5" fill="#8F90AB"/>
<circle cx="825" cy="479" r="5" fill="#8F90AB"/>
<circle cx="869" cy="479" r="5" fill="#8F90AB"/>
<circle cx="913" cy="479" r="5" fill="#8F90AB"/>
<circle cx="957" cy="479" r="5" fill="#8F90AB"/>
<circle cx="1001" cy="479" r="5" fill="#8F90AB"/>
<circle cx="1045" cy="479" r="5" fill="#8F90AB"/>
<circle cx="1089" cy="479" r="5" fill="#8F90AB"/>
<circle cx="1133" cy="479" r="5" fill="#8F90AB"/>
<circle cx="1177" cy="479" r="5" fill="#8F90AB"/>
</g>
<g clip-path="url(#clip14_23_168760)">
<circle cx="33" cy="523" r="5" fill="#8F90AB"/>
<circle cx="77" cy="523" r="5" fill="#8F90AB"/>
<circle cx="121" cy="523" r="5" fill="#8F90AB"/>
<circle cx="165" cy="523" r="5" fill="#8F90AB"/>
<circle cx="209" cy="523" r="5" fill="#8F90AB"/>
<circle cx="253" cy="523" r="5" fill="#8F90AB"/>
<circle cx="297" cy="523" r="5" fill="#8F90AB"/>
<circle cx="341" cy="523" r="5" fill="#8F90AB"/>
<circle cx="385" cy="523" r="5" fill="#8F90AB"/>
<circle cx="429" cy="523" r="5" fill="#8F90AB"/>
<circle cx="473" cy="523" r="5" fill="#8F90AB"/>
<circle cx="517" cy="523" r="5" fill="#8F90AB"/>
<circle cx="561" cy="523" r="5" fill="#8F90AB"/>
<circle cx="605" cy="523" r="5" fill="#8F90AB"/>
<circle cx="649" cy="523" r="5" fill="#8F90AB"/>
<circle cx="693" cy="523" r="5" fill="#8F90AB"/>
<circle cx="737" cy="523" r="5" fill="#8F90AB"/>
<circle cx="781" cy="523" r="5" fill="#8F90AB"/>
<circle cx="825" cy="523" r="5" fill="#8F90AB"/>
<circle cx="869" cy="523" r="5" fill="#8F90AB"/>
<circle cx="913" cy="523" r="5" fill="#8F90AB"/>
<circle cx="957" cy="523" r="5" fill="#8F90AB"/>
<circle cx="1001" cy="523" r="5" fill="#8F90AB"/>
<circle cx="1045" cy="523" r="5" fill="#8F90AB"/>
<circle cx="1089" cy="523" r="5" fill="#8F90AB"/>
<circle cx="1133" cy="523" r="5" fill="#8F90AB"/>
<circle cx="1177" cy="523" r="5" fill="#8F90AB"/>
</g>
<g clip-path="url(#clip15_23_168760)">
<circle cx="33" cy="567" r="5" fill="#8F90AB"/>
<circle cx="77" cy="567" r="5" fill="#8F90AB"/>
<circle cx="121" cy="567" r="5" fill="#8F90AB"/>
<circle cx="165" cy="567" r="5" fill="#8F90AB"/>
<circle cx="209" cy="567" r="5" fill="#8F90AB"/>
<circle cx="253" cy="567" r="5" fill="#8F90AB"/>
<circle cx="297" cy="567" r="5" fill="#8F90AB"/>
<circle cx="341" cy="567" r="5" fill="#8F90AB"/>
<circle cx="385" cy="567" r="5" fill="#8F90AB"/>
<circle cx="429" cy="567" r="5" fill="#8F90AB"/>
<circle cx="473" cy="567" r="5" fill="#8F90AB"/>
<circle cx="517" cy="567" r="5" fill="#8F90AB"/>
<circle cx="561" cy="567" r="5" fill="#8F90AB"/>
<circle cx="605" cy="567" r="5" fill="#8F90AB"/>
<circle cx="649" cy="567" r="5" fill="#8F90AB"/>
<circle cx="693" cy="567" r="5" fill="#8F90AB"/>
<circle cx="737" cy="567" r="5" fill="#8F90AB"/>
<circle cx="781" cy="567" r="5" fill="#8F90AB"/>
<circle cx="825" cy="567" r="5" fill="#8F90AB"/>
<circle cx="869" cy="567" r="5" fill="#8F90AB"/>
<circle cx="913" cy="567" r="5" fill="#8F90AB"/>
<circle cx="957" cy="567" r="5" fill="#8F90AB"/>
<circle cx="1001" cy="567" r="5" fill="#8F90AB"/>
<circle cx="1045" cy="567" r="5" fill="#8F90AB"/>
<circle cx="1089" cy="567" r="5" fill="#8F90AB"/>
<circle cx="1133" cy="567" r="5" fill="#8F90AB"/>
<circle cx="1177" cy="567" r="5" fill="#8F90AB"/>
</g>
<g clip-path="url(#clip16_23_168760)">
<circle cx="33" cy="611" r="5" fill="#8F90AB"/>
<circle cx="77" cy="611" r="5" fill="#8F90AB"/>
<circle cx="121" cy="611" r="5" fill="#8F90AB"/>
<circle cx="165" cy="611" r="5" fill="#8F90AB"/>
<circle cx="209" cy="611" r="5" fill="#8F90AB"/>
<circle cx="253" cy="611" r="5" fill="#8F90AB"/>
<circle cx="297" cy="611" r="5" fill="#8F90AB"/>
<circle cx="341" cy="611" r="5" fill="#8F90AB"/>
<circle cx="385" cy="611" r="5" fill="#8F90AB"/>
<circle cx="429" cy="611" r="5" fill="#8F90AB"/>
<circle cx="473" cy="611" r="5" fill="#8F90AB"/>
<circle cx="517" cy="611" r="5" fill="#8F90AB"/>
<circle cx="561" cy="611" r="5" fill="#8F90AB"/>
<circle cx="605" cy="611" r="5" fill="#8F90AB"/>
<circle cx="649" cy="611" r="5" fill="#8F90AB"/>
<circle cx="693" cy="611" r="5" fill="#8F90AB"/>
<circle cx="737" cy="611" r="5" fill="#8F90AB"/>
<circle cx="781" cy="611" r="5" fill="#8F90AB"/>
<circle cx="825" cy="611" r="5" fill="#8F90AB"/>
<circle cx="869" cy="611" r="5" fill="#8F90AB"/>
<circle cx="913" cy="611" r="5" fill="#8F90AB"/>
<circle cx="957" cy="611" r="5" fill="#8F90AB"/>
<circle cx="1001" cy="611" r="5" fill="#8F90AB"/>
<circle cx="1045" cy="611" r="5" fill="#8F90AB"/>
<circle cx="1089" cy="611" r="5" fill="#8F90AB"/>
<circle cx="1133" cy="611" r="5" fill="#8F90AB"/>
<circle cx="1177" cy="611" r="5" fill="#8F90AB"/>
</g>
<g clip-path="url(#clip17_23_168760)">
<circle cx="33" cy="655" r="5" fill="#8F90AB"/>
<circle cx="77" cy="655" r="5" fill="#8F90AB"/>
<circle cx="121" cy="655" r="5" fill="#8F90AB"/>
<circle cx="165" cy="655" r="5" fill="#8F90AB"/>
<circle cx="209" cy="655" r="5" fill="#8F90AB"/>
<circle cx="253" cy="655" r="5" fill="#8F90AB"/>
<circle cx="297" cy="655" r="5" fill="#8F90AB"/>
<circle cx="341" cy="655" r="5" fill="#8F90AB"/>
<circle cx="385" cy="655" r="5" fill="#8F90AB"/>
<circle cx="429" cy="655" r="5" fill="#8F90AB"/>
<circle cx="473" cy="655" r="5" fill="#8F90AB"/>
<circle cx="517" cy="655" r="5" fill="#8F90AB"/>
<circle cx="561" cy="655" r="5" fill="#8F90AB"/>
<circle cx="605" cy="655" r="5" fill="#8F90AB"/>
<circle cx="649" cy="655" r="5" fill="#8F90AB"/>
<circle cx="693" cy="655" r="5" fill="#8F90AB"/>
<circle cx="737" cy="655" r="5" fill="#8F90AB"/>
<circle cx="781" cy="655" r="5" fill="#8F90AB"/>
<circle cx="825" cy="655" r="5" fill="#8F90AB"/>
<circle cx="869" cy="655" r="5" fill="#8F90AB"/>
<circle cx="913" cy="655" r="5" fill="#8F90AB"/>
<circle cx="957" cy="655" r="5" fill="#8F90AB"/>
<circle cx="1001" cy="655" r="5" fill="#8F90AB"/>
<circle cx="1045" cy="655" r="5" fill="#8F90AB"/>
<circle cx="1089" cy="655" r="5" fill="#8F90AB"/>
<circle cx="1133" cy="655" r="5" fill="#8F90AB"/>
<circle cx="1177" cy="655" r="5" fill="#8F90AB"/>
</g>
<g clip-path="url(#clip18_23_168760)">
<circle cx="33" cy="699" r="5" fill="#8F90AB"/>
<circle cx="77" cy="699" r="5" fill="#8F90AB"/>
<circle cx="121" cy="699" r="5" fill="#8F90AB"/>
<circle cx="165" cy="699" r="5" fill="#8F90AB"/>
<circle cx="209" cy="699" r="5" fill="#8F90AB"/>
<circle cx="253" cy="699" r="5" fill="#8F90AB"/>
<circle cx="297" cy="699" r="5" fill="#8F90AB"/>
<circle cx="341" cy="699" r="5" fill="#8F90AB"/>
<circle cx="385" cy="699" r="5" fill="#8F90AB"/>
<circle cx="429" cy="699" r="5" fill="#8F90AB"/>
<circle cx="473" cy="699" r="5" fill="#8F90AB"/>
<circle cx="517" cy="699" r="5" fill="#8F90AB"/>
<circle cx="561" cy="699" r="5" fill="#8F90AB"/>
<circle cx="605" cy="699" r="5" fill="#8F90AB"/>
<circle cx="649" cy="699" r="5" fill="#8F90AB"/>
<circle cx="693" cy="699" r="5" fill="#8F90AB"/>
<circle cx="737" cy="699" r="5" fill="#8F90AB"/>
<circle cx="781" cy="699" r="5" fill="#8F90AB"/>
<circle cx="825" cy="699" r="5" fill="#8F90AB"/>
<circle cx="869" cy="699" r="5" fill="#8F90AB"/>
<circle cx="913" cy="699" r="5" fill="#8F90AB"/>
<circle cx="957" cy="699" r="5" fill="#8F90AB"/>
<circle cx="1001" cy="699" r="5" fill="#8F90AB"/>
<circle cx="1045" cy="699" r="5" fill="#8F90AB"/>
<circle cx="1089" cy="699" r="5" fill="#8F90AB"/>
<circle cx="1133" cy="699" r="5" fill="#8F90AB"/>
<circle cx="1177" cy="699" r="5" fill="#8F90AB"/>
</g>
<g clip-path="url(#clip19_23_168760)">
<circle cx="33" cy="743" r="5" fill="#8F90AB"/>
<circle cx="77" cy="743" r="5" fill="#8F90AB"/>
<circle cx="121" cy="743" r="5" fill="#8F90AB"/>
<circle cx="165" cy="743" r="5" fill="#8F90AB"/>
<circle cx="209" cy="743" r="5" fill="#8F90AB"/>
<circle cx="253" cy="743" r="5" fill="#8F90AB"/>
<circle cx="297" cy="743" r="5" fill="#8F90AB"/>
<circle cx="341" cy="743" r="5" fill="#8F90AB"/>
<circle cx="385" cy="743" r="5" fill="#8F90AB"/>
<circle cx="429" cy="743" r="5" fill="#8F90AB"/>
<circle cx="473" cy="743" r="5" fill="#8F90AB"/>
<circle cx="517" cy="743" r="5" fill="#8F90AB"/>
<circle cx="561" cy="743" r="5" fill="#8F90AB"/>
<circle cx="605" cy="743" r="5" fill="#8F90AB"/>
<circle cx="649" cy="743" r="5" fill="#8F90AB"/>
<circle cx="693" cy="743" r="5" fill="#8F90AB"/>
<circle cx="737" cy="743" r="5" fill="#8F90AB"/>
<circle cx="781" cy="743" r="5" fill="#8F90AB"/>
<circle cx="825" cy="743" r="5" fill="#8F90AB"/>
<circle cx="869" cy="743" r="5" fill="#8F90AB"/>
<circle cx="913" cy="743" r="5" fill="#8F90AB"/>
<circle cx="957" cy="743" r="5" fill="#8F90AB"/>
<circle cx="1001" cy="743" r="5" fill="#8F90AB"/>
<circle cx="1045" cy="743" r="5" fill="#8F90AB"/>
<circle cx="1089" cy="743" r="5" fill="#8F90AB"/>
<circle cx="1133" cy="743" r="5" fill="#8F90AB"/>
<circle cx="1177" cy="743" r="5" fill="#8F90AB"/>
</g>
<g clip-path="url(#clip20_23_168760)">
<circle cx="33" cy="787" r="5" fill="#8F90AB"/>
<circle cx="77" cy="787" r="5" fill="#8F90AB"/>
<circle cx="121" cy="787" r="5" fill="#8F90AB"/>
<circle cx="165" cy="787" r="5" fill="#8F90AB"/>
<circle cx="209" cy="787" r="5" fill="#8F90AB"/>
<circle cx="253" cy="787" r="5" fill="#8F90AB"/>
<circle cx="297" cy="787" r="5" fill="#8F90AB"/>
<circle cx="341" cy="787" r="5" fill="#8F90AB"/>
<circle cx="385" cy="787" r="5" fill="#8F90AB"/>
<circle cx="429" cy="787" r="5" fill="#8F90AB"/>
<circle cx="473" cy="787" r="5" fill="#8F90AB"/>
<circle cx="517" cy="787" r="5" fill="#8F90AB"/>
<circle cx="561" cy="787" r="5" fill="#8F90AB"/>
<circle cx="605" cy="787" r="5" fill="#8F90AB"/>
<circle cx="649" cy="787" r="5" fill="#8F90AB"/>
<circle cx="693" cy="787" r="5" fill="#8F90AB"/>
<circle cx="737" cy="787" r="5" fill="#8F90AB"/>
<circle cx="781" cy="787" r="5" fill="#8F90AB"/>
<circle cx="825" cy="787" r="5" fill="#8F90AB"/>
<circle cx="869" cy="787" r="5" fill="#8F90AB"/>
<circle cx="913" cy="787" r="5" fill="#8F90AB"/>
<circle cx="957" cy="787" r="5" fill="#8F90AB"/>
<circle cx="1001" cy="787" r="5" fill="#8F90AB"/>
<circle cx="1045" cy="787" r="5" fill="#8F90AB"/>
<circle cx="1089" cy="787" r="5" fill="#8F90AB"/>
<circle cx="1133" cy="787" r="5" fill="#8F90AB"/>
<circle cx="1177" cy="787" r="5" fill="#8F90AB"/>
</g>
</g>
</g>
</g>
</g>
<defs>
<radialGradient id="paint0_radial_23_168760" cx="0" cy="0" r="1" gradientUnits="userSpaceOnUse" gradientTransform="translate(507 942) rotate(83.8147) scale(612.566 391.635)">
<stop/>
<stop offset="1" stop-opacity="0"/>
</radialGradient>
<clipPath id="clip0_23_168760">
<rect width="1188" height="786" fill="white"/>
</clipPath>
<clipPath id="clip1_23_168760">
<rect width="719" height="1440" fill="white" transform="matrix(0 -1 1 0 -144 771)"/>
</clipPath>
<clipPath id="clip2_23_168760">
<rect width="1920" height="1470" fill="white" transform="translate(-377 30)"/>
</clipPath>
<clipPath id="clip3_23_168760">
<rect width="1920" height="14" fill="white" transform="translate(-377 32)"/>
</clipPath>
<clipPath id="clip4_23_168760">
<rect width="1920" height="14" fill="white" transform="translate(-377 76)"/>
</clipPath>
<clipPath id="clip5_23_168760">
<rect width="1920" height="14" fill="white" transform="translate(-377 120)"/>
</clipPath>
<clipPath id="clip6_23_168760">
<rect width="1920" height="14" fill="white" transform="translate(-377 164)"/>
</clipPath>
<clipPath id="clip7_23_168760">
<rect width="1920" height="14" fill="white" transform="translate(-377 208)"/>
</clipPath>
<clipPath id="clip8_23_168760">
<rect width="1920" height="14" fill="white" transform="translate(-377 252)"/>
</clipPath>
<clipPath id="clip9_23_168760">
<rect width="1920" height="14" fill="white" transform="translate(-377 296)"/>
</clipPath>
<clipPath id="clip10_23_168760">
<rect width="1920" height="14" fill="white" transform="translate(-377 340)"/>
</clipPath>
<clipPath id="clip11_23_168760">
<rect width="1920" height="14" fill="white" transform="translate(-377 384)"/>
</clipPath>
<clipPath id="clip12_23_168760">
<rect width="1920" height="14" fill="white" transform="translate(-377 428)"/>
</clipPath>
<clipPath id="clip13_23_168760">
<rect width="1920" height="14" fill="white" transform="translate(-377 472)"/>
</clipPath>
<clipPath id="clip14_23_168760">
<rect width="1920" height="14" fill="white" transform="translate(-377 516)"/>
</clipPath>
<clipPath id="clip15_23_168760">
<rect width="1920" height="14" fill="white" transform="translate(-377 560)"/>
</clipPath>
<clipPath id="clip16_23_168760">
<rect width="1920" height="14" fill="white" transform="translate(-377 604)"/>
</clipPath>
<clipPath id="clip17_23_168760">
<rect width="1920" height="14" fill="white" transform="translate(-377 648)"/>
</clipPath>
<clipPath id="clip18_23_168760">
<rect width="1920" height="14" fill="white" transform="translate(-377 692)"/>
</clipPath>
<clipPath id="clip19_23_168760">
<rect width="1920" height="14" fill="white" transform="translate(-377 736)"/>
</clipPath>
<clipPath id="clip20_23_168760">
<rect width="1920" height="14" fill="white" transform="translate(-377 780)"/>
</clipPath>
</defs>
</svg>
