<svg width="134" height="66" viewBox="0 0 134 66" fill="none" xmlns="http://www.w3.org/2000/svg">
<path fill-rule="evenodd" clip-rule="evenodd" d="M63.3386 41.9604H120.38C120.219 26.1805 107.511 13.4387 91.8592 13.4387C76.207 13.4387 63.4996 26.1805 63.3386 41.9604Z" fill="white"/>
<path d="M92.2456 8.62085V3.00001" stroke="white" stroke-width="5" stroke-linecap="round"/>
<path d="M115.532 18.2162L119.507 14.2417" stroke="white" stroke-width="5" stroke-linecap="round"/>
<path d="M105.094 11.4049L107.245 6.2119" stroke="white" stroke-width="5" stroke-linecap="round"/>
<path d="M115.532 18.2162L119.507 14.2417" stroke="white" stroke-width="5" stroke-linecap="round"/>
<path d="M122.759 26.8314L127.952 24.6804" stroke="white" stroke-width="5" stroke-linecap="round"/>
<path d="M125.168 36.725H130.789" stroke="white" stroke-width="5" stroke-linecap="round"/>
<path d="M105.094 11.4049L107.245 6.2119" stroke="white" stroke-width="5" stroke-linecap="round"/>
<path d="M68.9595 17.4133L64.9849 13.4387" stroke="white" stroke-width="5" stroke-linecap="round"/>
<path d="M61.7326 26.0284L56.5396 23.8774" stroke="white" stroke-width="5" stroke-linecap="round"/>
<path d="M59.3237 35.9221H53.7029" stroke="white" stroke-width="5" stroke-linecap="round"/>
<path d="M79.3981 10.6019L77.2471 5.40895" stroke="white" stroke-width="5" stroke-linecap="round"/>
<path fill-rule="evenodd" clip-rule="evenodd" d="M22.8469 24.0909H24.0621V32.5767C24.0621 33.0642 23.978 33.4864 23.8098 33.8434C23.645 34.2004 23.3944 34.4767 23.058 34.6724C22.725 34.8681 22.3045 34.9659 21.7965 34.9659H21.6729H21.5493V33.8331H21.6626H21.7759C22.1466 33.8331 22.4178 33.7232 22.5894 33.5036C22.7611 33.2873 22.8469 32.9783 22.8469 32.5767V24.0909ZM23.4442 22.7727C23.2073 22.7727 23.0031 22.6921 22.8315 22.5307C22.6632 22.3694 22.5791 22.1754 22.5791 21.9489C22.5791 21.7223 22.6632 21.5283 22.8315 21.367C23.0031 21.2057 23.2073 21.125 23.4442 21.125C23.6811 21.125 23.8836 21.2057 24.0518 21.367C24.2234 21.5283 24.3093 21.7223 24.3093 21.9489C24.3093 22.1754 24.2234 22.3694 24.0518 22.5307C23.8836 22.6921 23.6811 22.7727 23.4442 22.7727ZM0.00142056 21.4545V32H1.27841V28.1484H3.58523C4.40566 28.1484 5.07848 27.9991 5.60369 27.7005C6.12891 27.3984 6.51681 26.9933 6.7674 26.4853C7.02143 25.9772 7.14844 25.4125 7.14844 24.7912C7.14844 24.1699 7.02143 23.6069 6.7674 23.1023C6.51338 22.5977 6.12204 22.1977 5.59339 21.9025C5.06818 21.6039 4.39193 21.4545 3.56463 21.4545H0.00142056ZM1.27841 27.0156H3.54403C4.11044 27.0156 4.56528 26.9178 4.90856 26.7221C5.25183 26.5265 5.50071 26.2621 5.65518 25.9292C5.81309 25.5927 5.89205 25.2134 5.89205 24.7912C5.89205 24.369 5.81309 23.9914 5.65518 23.6584C5.50071 23.3254 5.25012 23.0645 4.90341 22.8757C4.5567 22.6835 4.09671 22.5874 3.52344 22.5874H1.27841V27.0156ZM63.5657 45.3636V65H69.0117V45.3636H63.5657ZM0 38.8182V65H5.53551V54.1847H16.7727V65H22.2955V38.8182H16.7727V49.6207H5.53551V38.8182H0ZM30.4773 64.1179C31.9261 64.9616 33.6435 65.3835 35.6293 65.3835C37.6151 65.3835 39.3281 64.9616 40.7685 64.1179C42.2173 63.2656 43.3338 62.081 44.1179 60.5639C44.902 59.0383 45.294 57.2699 45.294 55.2585C45.294 53.2301 44.902 51.4574 44.1179 49.9403C43.3338 48.4148 42.2173 47.2301 40.7685 46.3864C39.3281 45.5341 37.6151 45.108 35.6293 45.108C33.6435 45.108 31.9261 45.5341 30.4773 46.3864C29.0369 47.2301 27.9247 48.4148 27.1406 49.9403C26.3565 51.4574 25.9645 53.2301 25.9645 55.2585C25.9645 57.2699 26.3565 59.0383 27.1406 60.5639C27.9247 62.081 29.0369 63.2656 30.4773 64.1179ZM37.9176 60.3977C37.3125 60.9091 36.5582 61.1648 35.6548 61.1648C34.7429 61.1648 33.9759 60.9091 33.3537 60.3977C32.7401 59.8778 32.2756 59.1705 31.9602 58.2756C31.6534 57.3807 31.5 56.3622 31.5 55.2202C31.5 54.0781 31.6534 53.0597 31.9602 52.1648C32.2756 51.2699 32.7401 50.5625 33.3537 50.0426C33.9759 49.5227 34.7429 49.2628 35.6548 49.2628C36.5582 49.2628 37.3125 49.5227 37.9176 50.0426C38.5227 50.5625 38.9787 51.2699 39.2855 52.1648C39.6009 53.0597 39.7585 54.0781 39.7585 55.2202C39.7585 56.3622 39.6009 57.3807 39.2855 58.2756C38.9787 59.1705 38.5227 59.8778 37.9176 60.3977ZM48.8352 65V45.3636H54.1151V48.7898H54.3196C54.6776 47.571 55.2784 46.6506 56.1222 46.0284C56.9659 45.3977 57.9375 45.0824 59.0369 45.0824C59.3097 45.0824 59.6037 45.0994 59.919 45.1335C60.2344 45.1676 60.5114 45.2145 60.75 45.2741V50.1065C60.4943 50.0298 60.1406 49.9616 59.6889 49.902C59.2372 49.8423 58.8239 49.8125 58.4489 49.8125C57.6477 49.8125 56.9318 49.9872 56.3011 50.3366C55.679 50.6776 55.1847 51.1548 54.8182 51.7685C54.4602 52.3821 54.2812 53.0895 54.2812 53.8906V65H48.8352ZM73.272 65V61.7528L82.8857 49.8509V49.7102H73.6044V45.3636H89.4439V48.9048L80.4183 60.5128V60.6534H89.7763V65H73.272ZM97.0984 64.1179C98.5472 64.9616 100.265 65.3835 102.25 65.3835C104.236 65.3835 105.949 64.9616 107.39 64.1179C108.838 63.2656 109.955 62.081 110.739 60.5639C111.523 59.0383 111.915 57.2699 111.915 55.2585C111.915 53.2301 111.523 51.4574 110.739 49.9403C109.955 48.4148 108.838 47.2301 107.39 46.3864C105.949 45.5341 104.236 45.108 102.25 45.108C100.265 45.108 98.5472 45.5341 97.0984 46.3864C95.658 47.2301 94.5458 48.4148 93.7617 49.9403C92.9776 51.4574 92.5856 53.2301 92.5856 55.2585C92.5856 57.2699 92.9776 59.0383 93.7617 60.5639C94.5458 62.081 95.658 63.2656 97.0984 64.1179ZM104.539 60.3977C103.934 60.9091 103.179 61.1648 102.276 61.1648C101.364 61.1648 100.597 60.9091 99.9748 60.3977C99.3611 59.8778 98.8967 59.1705 98.5813 58.2756C98.2745 57.3807 98.1211 56.3622 98.1211 55.2202C98.1211 54.0781 98.2745 53.0597 98.5813 52.1648C98.8967 51.2699 99.3611 50.5625 99.9748 50.0426C100.597 49.5227 101.364 49.2628 102.276 49.2628C103.179 49.2628 103.934 49.5227 104.539 50.0426C105.144 50.5625 105.6 51.2699 105.907 52.1648C106.222 53.0597 106.38 54.0781 106.38 55.2202C106.38 56.3622 106.222 57.3807 105.907 58.2756C105.6 59.1705 105.144 59.8778 104.539 60.3977ZM120.902 53.6477V65H115.456V45.3636H120.647V48.8281H120.877C121.311 47.6861 122.04 46.7827 123.063 46.1179C124.086 45.4446 125.326 45.108 126.783 45.108C128.147 45.108 129.336 45.4062 130.35 46.0028C131.364 46.5994 132.152 47.4517 132.715 48.5597C133.277 49.6591 133.559 50.9716 133.559 52.4972V65H128.113V53.4688C128.121 52.267 127.814 51.3295 127.192 50.6562C126.57 49.9744 125.713 49.6335 124.623 49.6335C123.89 49.6335 123.242 49.7912 122.679 50.1065C122.125 50.4219 121.691 50.8821 121.375 51.4872C121.069 52.0838 120.911 52.804 120.902 53.6477ZM9.04075 32V24.0909H10.2148V25.2855H10.2971C10.4413 24.8942 10.7022 24.5766 11.0798 24.3329C11.4574 24.0892 11.8831 23.9673 12.3568 23.9673C12.4461 23.9673 12.5576 23.969 12.6915 23.9725C12.8254 23.9759 12.9266 23.9811 12.9953 23.9879V25.2237C12.9541 25.2134 12.8597 25.198 12.7121 25.1774C12.5679 25.1533 12.4152 25.1413 12.2538 25.1413C11.8693 25.1413 11.5261 25.222 11.224 25.3833C10.9253 25.5413 10.6885 25.7609 10.5134 26.0424C10.3418 26.3205 10.2559 26.638 10.2559 26.995V32H9.04075ZM15.5287 31.655C16.0676 31.9949 16.6941 32.1648 17.4081 32.1648C18.1221 32.1648 18.7469 31.9949 19.2824 31.655C19.8213 31.3152 20.2401 30.8397 20.5388 30.2287C20.8409 29.6177 20.9919 28.9036 20.9919 28.0866C20.9919 27.2628 20.8409 26.5436 20.5388 25.9292C20.2401 25.3147 19.8213 24.8375 19.2824 24.4977C18.7469 24.1578 18.1221 23.9879 17.4081 23.9879C16.6941 23.9879 16.0676 24.1578 15.5287 24.4977C14.9932 24.8375 14.5744 25.3147 14.2723 25.9292C13.9736 26.5436 13.8243 27.2628 13.8243 28.0866C13.8243 28.9036 13.9736 29.6177 14.2723 30.2287C14.5744 30.8397 14.9932 31.3152 15.5287 31.655ZM18.7469 30.6561C18.3968 30.9341 17.9505 31.0732 17.4081 31.0732C16.8657 31.0732 16.4195 30.9341 16.0693 30.6561C15.7192 30.378 15.46 30.0124 15.2918 29.5593C15.1236 29.1062 15.0395 28.6153 15.0395 28.0866C15.0395 27.558 15.1236 27.0654 15.2918 26.6088C15.46 26.1523 15.7192 25.7833 16.0693 25.5018C16.4195 25.2203 16.8657 25.0795 17.4081 25.0795C17.9505 25.0795 18.3968 25.2203 18.7469 25.5018C19.097 25.7833 19.3562 26.1523 19.5244 26.6088C19.6926 27.0654 19.7767 27.558 19.7767 28.0866C19.7767 28.6153 19.6926 29.1062 19.5244 29.5593C19.3562 30.0124 19.097 30.378 18.7469 30.6561ZM27.6317 31.6602C28.1844 31.9966 28.8418 32.1648 29.6039 32.1648C30.1394 32.1648 30.6217 32.0824 31.0508 31.9176C31.4799 31.7494 31.8403 31.516 32.1321 31.2173C32.4239 30.9152 32.6316 30.5651 32.7551 30.1669L31.5811 29.8374C31.4782 30.112 31.3323 30.342 31.1435 30.5273C30.9547 30.7093 30.7298 30.8466 30.4689 30.9393C30.2115 31.0285 29.9231 31.0732 29.6039 31.0732C29.113 31.0732 28.6822 30.9667 28.3114 30.7539C27.9407 30.5376 27.6506 30.2235 27.4412 29.8116C27.2545 29.435 27.1524 28.9836 27.135 28.4574H32.8787V27.9425C32.8787 27.2044 32.7809 26.5831 32.5852 26.0785C32.3896 25.5739 32.127 25.1688 31.7974 24.8633C31.4679 24.5543 31.1023 24.3312 30.7006 24.1939C30.299 24.0566 29.8922 23.9879 29.4803 23.9879C28.7663 23.9879 28.1415 24.163 27.606 24.5131C27.0739 24.8598 26.6586 25.3439 26.3599 25.9652C26.0647 26.5831 25.9171 27.2971 25.9171 28.1072C25.9171 28.9174 26.0647 29.628 26.3599 30.239C26.6586 30.8466 27.0825 31.3203 27.6317 31.6602ZM27.1381 27.407C27.1612 27.0401 27.2537 26.6934 27.4155 26.3668C27.6043 25.9858 27.8738 25.6768 28.2239 25.44C28.5775 25.1997 28.9963 25.0795 29.4803 25.0795C29.9197 25.0795 30.3007 25.1808 30.6234 25.3833C30.9495 25.5859 31.2001 25.8622 31.3752 26.2124C31.5537 26.5625 31.6429 26.9607 31.6429 27.407H27.1381ZM37.9403 32.1648C37.1989 32.1648 36.5604 31.9897 36.0249 31.6396C35.4893 31.2894 35.0774 30.8071 34.7891 30.1926C34.5007 29.5782 34.3565 28.8762 34.3565 28.0866C34.3565 27.2834 34.5041 26.5745 34.7994 25.96C35.098 25.3422 35.5134 24.8598 36.0455 24.5131C36.581 24.163 37.2057 23.9879 37.9197 23.9879C38.4758 23.9879 38.977 24.0909 39.4233 24.2969C39.8696 24.5028 40.2351 24.7912 40.5201 25.1619C40.805 25.5327 40.9818 25.9652 41.0504 26.4595H39.8352C39.7425 26.0991 39.5366 25.7798 39.2173 25.5018C38.9015 25.2203 38.4759 25.0795 37.9403 25.0795C37.4666 25.0795 37.0513 25.2031 36.6942 25.4503C36.3407 25.694 36.0643 26.039 35.8652 26.4853C35.6696 26.9281 35.5717 27.4482 35.5717 28.0455C35.5717 28.6565 35.6679 29.1886 35.8601 29.6417C36.0558 30.0948 36.3304 30.4467 36.6839 30.6973C37.041 30.9479 37.4598 31.0732 37.9403 31.0732C38.2562 31.0732 38.5428 31.0182 38.8002 30.9084C39.0577 30.7985 39.2757 30.6406 39.4542 30.4347C39.6327 30.2287 39.7597 29.9815 39.8352 29.6932H41.0504C40.9818 30.16 40.8118 30.5806 40.5407 30.9547C40.2729 31.3255 39.9176 31.6207 39.4748 31.8404C39.0354 32.0566 38.5239 32.1648 37.9403 32.1648ZM46.2665 25.1207V24.0909H44.5776V22.196H43.3624V24.0909H42.1678V25.1207H43.3624V30.0639C43.3624 30.5239 43.4688 30.9049 43.6816 31.207C43.8979 31.5091 44.1691 31.734 44.4952 31.8816C44.8247 32.0292 45.1612 32.103 45.5044 32.103C45.731 32.103 45.9181 32.0858 46.0657 32.0515C46.2133 32.0206 46.3283 31.9897 46.4107 31.9588L46.1635 30.8672L45.9576 30.9084C45.8717 30.9221 45.7619 30.929 45.628 30.929C45.4495 30.929 45.2796 30.9015 45.1183 30.8466C44.9603 30.7882 44.8299 30.675 44.7269 30.5067C44.6274 30.3351 44.5776 30.0777 44.5776 29.7344V25.1207H46.2665Z" fill="white"/>
</svg>
